<?xml version="1.0" standalone="no"?>
<!DOCTYPE svg PUBLIC "-//W3C//DTD SVG 20010904//EN"
 "http://www.w3.org/TR/2001/REC-SVG-20010904/DTD/svg10.dtd">
<svg version="1.0" xmlns="http://www.w3.org/2000/svg"
 width="260.000000pt" height="260.000000pt" viewBox="0 0 260.000000 260.000000"
 preserveAspectRatio="xMidYMid meet">
<metadata>
Created by potrace 1.14, written by Peter Selinger 2001-2017
</metadata>
<g transform="translate(0.000000,260.000000) scale(0.100000,-0.100000)"
fill="#000000" stroke="none">
<path d="M618 2514 c-51 -41 -100 -83 -108 -93 -8 -9 -24 -22 -34 -28 -29 -16
-205 -157 -205 -165 -1 -3 14 -11 32 -17 18 -6 40 -20 49 -30 19 -22 60 -111
51 -111 -3 0 1 -8 10 -18 9 -9 18 -35 21 -57 11 -92 89 -266 148 -330 35 -39
222 -175 241 -175 7 0 29 33 50 73 20 39 50 95 65 122 16 28 51 93 79 145 27
52 69 130 92 172 l41 76 -97 53 c-88 47 -177 108 -194 133 -4 5 -15 6 -24 2
-12 -4 -16 -2 -12 8 3 8 -1 17 -10 20 -9 4 -13 9 -10 13 4 3 -3 18 -14 34 -38
53 -58 115 -61 182 -2 37 -6 67 -10 67 -3 0 -48 -34 -100 -76z"/>
<path d="M1308 2034 c-2 -1 -16 -4 -33 -7 -81 -13 -121 -45 -173 -139 -29 -53
-86 -198 -77 -198 2 0 0 -12 -6 -27 -19 -51 -14 -174 11 -230 l22 -51 -45 -46
c-24 -25 -47 -46 -51 -46 -4 0 -18 26 -32 58 -25 58 -26 59 -145 125 -66 37
-124 67 -129 67 -5 0 -10 -21 -12 -47 l-3 -48 -55 3 c-59 4 -115 -11 -105 -28
3 -6 -1 -13 -10 -16 -12 -5 -15 -14 -11 -30 6 -22 -1 -29 -26 -25 -17 2 -5
-29 50 -129 l57 -105 58 -2 c32 -1 65 -4 73 -7 21 -8 17 -41 -14 -142 l-28
-89 18 -80 c10 -44 20 -95 24 -114 3 -19 21 -106 41 -195 38 -176 38 -177 54
-256 6 -30 14 -60 18 -66 4 -7 89 31 236 105 l230 116 31 100 30 100 443 3
442 2 -6 48 c-13 116 -18 143 -42 242 -58 240 -161 448 -280 564 l-50 49 14
46 c19 60 6 184 -26 249 -82 171 -110 200 -219 229 -46 13 -265 26 -274 17z"/>
</g>
</svg>
